<svg width="1200" height="320" viewBox="0 0 1200 320" fill="none" xmlns="http://www.w3.org/2000/svg">
  <defs>
    <linearGradient id="bg" x1="0" y1="0" x2="1200" y2="320" gradientUnits="userSpaceOnUse">
      <stop stop-color="#0B1020"/>
      <stop offset="0.58" stop-color="#111827"/>
      <stop offset="1" stop-color="#164E63"/>
    </linearGradient>
    <linearGradient id="accent" x1="0" y1="0" x2="460" y2="0" gradientUnits="userSpaceOnUse">
      <stop stop-color="#38BDF8"/>
      <stop offset="1" stop-color="#22C55E"/>
    </linearGradient>
    <filter id="soft" x="-10%" y="-20%" width="120%" height="140%">
      <feDropShadow dx="0" dy="14" stdDeviation="20" flood-color="#020617" flood-opacity="0.3"/>
    </filter>
  </defs>

  <rect width="1200" height="320" rx="22" fill="url(#bg)"/>

  <g opacity="0.16">
    <path d="M0 72H1200" stroke="#E5E7EB"/>
    <path d="M0 146H1200" stroke="#E5E7EB"/>
    <path d="M0 220H1200" stroke="#E5E7EB"/>
    <path d="M160 0V320" stroke="#E5E7EB"/>
    <path d="M340 0V320" stroke="#E5E7EB"/>
    <path d="M520 0V320" stroke="#E5E7EB"/>
    <path d="M700 0V320" stroke="#E5E7EB"/>
    <path d="M880 0V320" stroke="#E5E7EB"/>
    <path d="M1060 0V320" stroke="#E5E7EB"/>
  </g>

  <g transform="translate(82 58)" filter="url(#soft)">
    <rect width="560" height="204" rx="18" fill="#0F172A" stroke="#334155"/>
    <rect x="1" y="1" width="558" height="46" rx="17" fill="#111827"/>
    <circle cx="30" cy="24" r="6" fill="#F87171"/>
    <circle cx="52" cy="24" r="6" fill="#FBBF24"/>
    <circle cx="74" cy="24" r="6" fill="#34D399"/>
    <text x="32" y="90" fill="#94A3B8" font-family="Consolas, monospace" font-size="22">class FlorenciaVillalonga</text>
    <text x="32" y="128" fill="#E5E7EB" font-family="Consolas, monospace" font-size="30" font-weight="700">Junior Developer</text>
    <text x="32" y="166" fill="#38BDF8" font-family="Consolas, monospace" font-size="22">focus: desarrollo de aplicaciones</text>
  </g>

  <g transform="translate(760 72)">
    <rect x="0" y="0" width="300" height="170" rx="18" fill="#020617" fill-opacity="0.62" stroke="#334155"/>
    <path d="M64 64L34 88L64 112" stroke="#38BDF8" stroke-width="10" stroke-linecap="round" stroke-linejoin="round"/>
    <path d="M236 64L266 88L236 112" stroke="#22C55E" stroke-width="10" stroke-linecap="round" stroke-linejoin="round"/>
    <path d="M176 48L126 126" stroke="#E5E7EB" stroke-width="10" stroke-linecap="round"/>
    <rect x="64" y="144" width="172" height="6" rx="3" fill="url(#accent)"/>
  </g>
</svg>
