<svg width="1200" height="360" viewBox="0 0 1200 360" fill="none" xmlns="http://www.w3.org/2000/svg">
  <defs>
    <linearGradient id="bg" x1="0" y1="0" x2="1200" y2="360" gradientUnits="userSpaceOnUse">
      <stop stop-color="#0F172A"/>
      <stop offset="0.45" stop-color="#155E75"/>
      <stop offset="1" stop-color="#F97316"/>
    </linearGradient>
    <linearGradient id="line" x1="150" y1="40" x2="1050" y2="320" gradientUnits="userSpaceOnUse">
      <stop stop-color="#67E8F9"/>
      <stop offset="1" stop-color="#FDBA74"/>
    </linearGradient>
    <filter id="shadow" x="-20%" y="-20%" width="140%" height="140%">
      <feDropShadow dx="0" dy="12" stdDeviation="18" flood-color="#020617" flood-opacity="0.28"/>
    </filter>
  </defs>
  <rect width="1200" height="360" rx="28" fill="url(#bg)"/>
  <path d="M-40 295C120 222 202 330 360 238C514 148 612 232 764 138C904 51 1018 88 1240 12" stroke="url(#line)" stroke-width="6" stroke-linecap="round" opacity="0.55"/>
  <path d="M-60 248C118 174 244 205 388 148C552 82 661 124 793 83C929 41 1030 56 1260 -24" stroke="#FFFFFF" stroke-width="2" stroke-linecap="round" opacity="0.18"/>
  <g opacity="0.15">
    <circle cx="102" cy="84" r="4" fill="#FFFFFF"/>
    <circle cx="178" cy="136" r="4" fill="#FFFFFF"/>
    <circle cx="278" cy="72" r="4" fill="#FFFFFF"/>
    <circle cx="1022" cy="244" r="4" fill="#FFFFFF"/>
    <circle cx="1102" cy="174" r="4" fill="#FFFFFF"/>
    <circle cx="928" cy="102" r="4" fill="#FFFFFF"/>
  </g>
  <g filter="url(#shadow)">
    <rect x="85" y="72" width="520" height="216" rx="22" fill="#FFFFFF" fill-opacity="0.1" stroke="#FFFFFF" stroke-opacity="0.22"/>
    <text x="125" y="142" fill="#FFFFFF" font-family="Segoe UI, Arial, sans-serif" font-size="30" font-weight="600">Hola, soy Florencia</text>
    <text x="125" y="192" fill="#E0F2FE" font-family="Segoe UI, Arial, sans-serif" font-size="56" font-weight="800">Junior Developer</text>
    <text x="125" y="238" fill="#FFEDD5" font-family="Segoe UI, Arial, sans-serif" font-size="24">Aprendiendo, practicando y construyendo mi portfolio.</text>
  </g>
  <g transform="translate(810 92)" filter="url(#shadow)">
    <rect width="250" height="176" rx="20" fill="#0B1220" fill-opacity="0.72" stroke="#FFFFFF" stroke-opacity="0.16"/>
    <circle cx="36" cy="34" r="7" fill="#F97316"/>
    <circle cx="62" cy="34" r="7" fill="#FBBF24"/>
    <circle cx="88" cy="34" r="7" fill="#22C55E"/>
    <text x="30" y="82" fill="#67E8F9" font-family="Consolas, monospace" font-size="18">&gt; aprender</text>
    <text x="30" y="118" fill="#FDBA74" font-family="Consolas, monospace" font-size="18">&gt; practicar</text>
    <text x="30" y="154" fill="#FFFFFF" font-family="Consolas, monospace" font-size="18">&gt; crear</text>
  </g>
</svg>
